# xmcd
#
# Track frame offsets:
# 150
# 6229
# 23706
# 38389
# 58844
# 79506
#
# Disc length: 1191 seconds
#
#
# Revision: 0
# Processed by: cddbd v1.5.2PL0 Copyright (c) Steve Scherf et al.
# Submitted via: FreeRIP 2.941 
#
DISCID=3804a506
DTITLE=이사우&구현화 - 동행
DYEAR=2008
DGENRE=
TTITLE0=Prologue
TTITLE1=아바아버지
TTITLE2=내 마음 흔들리지 않네
TTITLE3=전심으로
TTITLE4=주와 동행 하는길
TTITLE5=내 마음 흔들리지 않네
EXTD=
EXTT0=
EXTT1=
EXTT2=
EXTT3=
EXTT4=
EXTT5=
PLAYORDER=
